<?xml version="1.0" standalone="no"?><!DOCTYPE svg PUBLIC "-//W3C//DTD SVG 1.1//EN" "http://www.w3.org/Graphics/SVG/1.1/DTD/svg11.dtd"><svg t="1713189665578" class="icon" viewBox="0 0 1024 1024" version="1.1" xmlns="http://www.w3.org/2000/svg" p-id="39279" xmlns:xlink="http://www.w3.org/1999/xlink" width="128" height="128"><path d="M0 0m204.8 0l614.4 0q204.8 0 204.8 204.8l0 614.4q0 204.8-204.8 204.8l-614.4 0q-204.8 0-204.8-204.8l0-614.4q0-204.8 204.8-204.8Z" fill="#409eff" p-id="39280" data-spm-anchor-id="a313x.search_index.0.i7.2cc13a81dLioYu" class="selected"></path><path d="M319.6928 675.584a253.2608 253.2608 0 0 1-66.56-171.1616A259.1488 259.1488 0 0 1 514.56 247.7312a259.1488 259.1488 0 0 1 261.4272 256.6656 256.3072 256.3072 0 0 1-143.872 229.376 379.9552 379.9552 0 0 1-384-20.1472 126.9248 126.9248 0 0 0 71.68-38.0416z m317.6704-44.0832A173.184 173.184 0 0 0 524.544 336.128a83.5072 83.5072 0 0 1 15.36-51.712 249.6256 249.6256 0 0 0-188.6464 164.6848q2.56-6.912 5.8368-13.6448-3.6864 9.4208-6.7072 19.2768a173.184 173.184 0 0 0 286.9248 176.768z" fill="#FFFFFF" p-id="39281"></path><path d="M426.9824 491.2384v35.84a25.9072 25.9072 0 0 0 51.7888 0v-35.84a25.9072 25.9072 0 1 0-51.7888 0z" fill="#FFFFFF" p-id="39282"></path><path d="M555.1872 491.2384v35.84a25.9072 25.9072 0 0 0 51.8144 0v-35.84a25.9072 25.9072 0 1 0-51.8144 0z" fill="#FFFFFF" p-id="39283"></path></svg>