<?xml version="1.0" standalone="no"?><!DOCTYPE svg PUBLIC "-//W3C//DTD SVG 1.1//EN" "http://www.w3.org/Graphics/SVG/1.1/DTD/svg11.dtd"><svg t="1713101248094" class="icon" viewBox="0 0 1024 1024" version="1.1" xmlns="http://www.w3.org/2000/svg" p-id="25068" xmlns:xlink="http://www.w3.org/1999/xlink" width="128" height="128"><path d="M1012.223394 477.870167c-24.897696-31.797612-65.475201-72.88311-108.084681-103.514737a43.569468 43.569468 0 0 1-17.529786-42.319483c8.475897-51.819367 8.115901-109.592662 3.225961-149.686173-3.079962-25.211692-22.983719-45.117449-48.195412-48.195412-40.093511-4.88194-97.864805-5.249936-149.686173 3.225961a43.549468 43.549468 0 0 1-42.311483-17.529786c-30.631626-42.60948-71.725124-83.186985-103.522736-108.084681-20.037755-15.687808-48.209412-15.687808-68.249167 0-31.795612 24.897696-72.87911 65.475201-103.512737 108.084681a43.561468 43.561468 0 0 1-42.319483 17.529786c-51.813368-8.475897-109.592662-8.107901-149.686173-3.225961-25.211692 3.079962-45.117449 22.983719-48.195412 48.195412-4.88194 40.093511-5.249936 97.864805 3.225961 149.686173a43.569468 43.569468 0 0 1-17.529786 42.319483c-42.60948 30.623626-83.186985 71.719125-108.084681 103.512737-15.687808 20.039755-15.687808 48.211411 0 68.249167 24.897696 31.797612 65.475201 72.89111 108.084681 103.514736 13.373837 9.617883 20.193753 26.069682 17.529786 42.319483-8.475897 51.819367-8.107901 109.592662-3.225961 149.686173 3.079962 25.211692 22.983719 45.117449 48.203412 48.195412 40.085511 4.88194 97.864805 5.249936 149.678173-3.225961 16.255802-2.657968 32.709601 4.155949 42.319483 17.529786 30.631626 42.60948 71.719125 83.186985 103.520737 108.084681 20.031755 15.687808 48.211411 15.687808 68.241167 0 31.805612-24.897696 72.89111-65.475201 103.522736-108.084681 9.609883-13.373837 26.061682-20.187754 42.319483-17.529786 51.813368 8.475897 109.584662 8.107901 149.678173 3.225961 25.211692-3.079962 45.125449-22.983719 48.195412-48.195412 4.88994-40.093511 5.249936-97.864805-3.225961-149.686173a43.569468 43.569468 0 0 1 17.529786-42.319483c42.61748-30.623626 83.194984-71.719125 108.084681-103.512736 15.687808-20.039755 15.687808-48.211411 0-68.249167z m0 0" fill="#EEA849" p-id="25069"></path><path d="M893.146847 767.122636c-674.725764 107.358689-666.655862-409.235004-591.39878-633.664265-43.023475-4.239948-86.982938-3.24996-119.398543 0.695991-25.209692 3.079962-45.115449 22.983719-48.193412 48.195412-4.88194 40.093511-5.249936 97.864805 3.225961 149.686173a43.569468 43.569468 0 0 1-17.529786 42.319483c-42.60948 30.623626-83.186985 71.719125-108.084681 103.512737-15.687808 20.039755-15.687808 48.211411 0 68.249167 24.897696 31.797612 65.475201 72.89111 108.084681 103.514736 13.373837 9.617883 20.193753 26.069682 17.529786 42.319483-8.475897 51.819367-8.107901 109.592662-3.225961 149.686173 3.079962 25.211692 22.983719 45.117449 48.203412 48.195412 40.085511 4.88994 97.864805 5.249936 149.678173-3.225961 16.255802-2.657968 32.709601 4.155949 42.319483 17.529786 30.631626 42.61748 71.719125 83.194984 103.512737 108.084681 20.039755 15.687808 48.211411 15.687808 68.249167 0 31.797612-24.889696 72.89111-65.467201 103.522736-108.084681a43.549468 43.549468 0 0 1 42.311483-17.529786c51.819367 8.475897 109.592662 8.115901 149.686173 3.225961 25.211692-3.069963 45.117449-22.983719 48.195412-48.195412 2.569969-21.093743 3.873953-47.085425 3.311959-74.51509z m0 0" fill="#E9901B" p-id="25070"></path><path d="M864.843193 511.99375c0 194.873621-157.976072 352.847693-352.847693 352.847693S159.147807 706.867371 159.147807 511.99375 317.121879 159.146057 511.9955 159.146057 864.843193 317.122129 864.843193 511.99375z m0 0" fill="#F7EF87" p-id="25071"></path><path d="M361.677335 192.701648C241.990796 249.144959 159.147807 370.885473 159.147807 511.99375c0 194.873621 157.976072 352.847693 352.847693 352.847693 127.81044 0 239.747073-67.95317 301.660318-169.709928-418.728889 91.170887-563.093126-337.955875-451.978483-502.429867z m0 0" fill="#EFD176" p-id="25072"></path><path d="M332.397692 93.38886a15.007817 15.007817 0 0 1-13.86783-9.263887l-16.727796-40.391507a14.999817 14.999817 0 1 1 27.711662-11.48386l16.733795 40.399507c3.171961 7.645907-0.467994 16.4198-8.117901 19.591761-1.873977 0.77999-3.819953 1.147986-5.73393 1.147986z m0 0M78.382793 347.385759c-1.913977 0-3.859953-0.365996-5.73393-1.139986l-40.397507-16.733795a15.005817 15.005817 0 0 1-8.117901-19.593761 15.009817 15.009817 0 0 1 19.601761-8.125901l40.389507 16.735796a14.999817 14.999817 0 0 1-5.73993 28.859647z m0 0M38.001286 723.33517a14.995817 14.995817 0 0 1-13.867831-9.265887c-3.163961-7.647907 0.469994-16.429799 8.117901-19.59376l40.399507-16.733796a14.987817 14.987817 0 0 1 19.591761 8.117901 14.999817 14.999817 0 0 1-8.117901 19.59976l-40.389507 16.735796a15.039816 15.039816 0 0 1-5.73393 1.139986z m0 0M315.653897 1001.003781c-1.913977 0-3.859953-0.375995-5.73393-1.147986a14.999817 14.999817 0 0 1-8.117901-19.601761l16.727796-40.389507a14.999817 14.999817 0 0 1 19.59976-8.119901 14.993817 14.993817 0 0 1 8.117901 19.595761l-16.733795 40.397507a15.005817 15.005817 0 0 1-13.859831 9.265887z m0 0M708.337103 1001.003781a15.005817 15.005817 0 0 1-13.85983-9.265887l-16.733796-40.399507c-3.171961-7.645907 0.467994-16.4198 8.117901-19.591761a14.999817 14.999817 0 0 1 19.59976 8.117901l16.727796 40.389507a14.999817 14.999817 0 0 1-8.117901 19.599761 15.021817 15.021817 0 0 1-5.73393 1.149986z m0 0M985.989714 723.33517a14.905818 14.905818 0 0 1-5.73393-1.147986l-40.389507-16.727796a15.001817 15.001817 0 0 1 11.48386-27.719661l40.389507 16.735796a14.993817 14.993817 0 0 1 8.117901 19.59376 14.995817 14.995817 0 0 1-13.867831 9.265887z m0 0M945.616207 347.385759a15.009817 15.009817 0 0 1-13.867831-9.257887 15.005817 15.005817 0 0 1 8.115901-19.59976l40.391507-16.735796a15.009817 15.009817 0 0 1 19.599761 8.125901 14.993817 14.993817 0 0 1-8.115901 19.593761l-40.389507 16.733795a15.069816 15.069816 0 0 1-5.73593 1.139986z m0 0M691.593308 93.38886a15.005817 15.005817 0 0 1-13.851831-20.749747l16.735796-40.389507a14.989817 14.989817 0 0 1 19.59376-8.117901 14.993817 14.993817 0 0 1 8.117901 19.593761l-16.727796 40.399507a15.007817 15.007817 0 0 1-13.86583 9.263887z m0 0" fill="#F7EF87" p-id="25073"></path><path d="M378.637128 480.540134c0-34.295581-34.905574-62.099242-77.975048-62.099242-43.061474 0-77.975048 27.803661-77.975048 62.099242 0 34.297581 34.913574 62.093242 77.975048 62.093242 43.069474 0 77.975048-27.795661 77.975048-62.093242z m0 0M801.303968 480.540134c0-34.295581-34.905574-62.099242-77.975048-62.099242-43.061474 0-77.975048 27.803661-77.975048 62.099242 0 34.297581 34.913574 62.093242 77.975048 62.093242 43.069474 0 77.975048-27.795661 77.975048-62.093242z m0 0" fill="#EDA1AB" p-id="25074"></path><path d="M383.223072 427.962776a14.999817 14.999817 0 0 1-14.999817-14.999817c0-12.193851-9.919879-22.10773-22.11573-22.10773s-22.11773 9.919879-22.11773 22.10773c0 8.289899-6.709918 14.999817-14.999817 14.999817a14.999817 14.999817 0 0 1-14.999817-14.999817c0-28.733649 23.381715-52.107364 52.117364-52.107364 28.739649 0 52.115364 23.373715 52.115364 52.107364a14.999817 14.999817 0 0 1-14.999817 14.999817z m0 0M715.001022 427.962776a14.993817 14.993817 0 0 1-14.999817-14.999817c0-12.193851-9.921879-22.10773-22.11773-22.10773-12.193851 0-22.11573 9.919879-22.11573 22.10773 0 8.289899-6.711918 14.999817-14.999817 14.999817s-14.999817-6.709918-14.999817-14.999817c0-28.733649 23.373715-52.107364 52.115364-52.107364 28.733649 0 52.117364 23.373715 52.117364 52.107364 0 8.289899-6.711918 14.999817-14.999817 14.999817z m0 0M511.9955 489.284027c-19.419763 0-37.899537-8.415897-50.679381-23.079718-5.437934-6.249924-4.787942-15.725808 1.453982-21.163742a14.993817 14.993817 0 0 1 21.163742 1.453983c7.085914 8.125901 17.311789 12.789844 28.061657 12.789844s20.975744-4.665943 28.069657-12.789844a14.983817 14.983817 0 0 1 21.155742-1.453983 14.993817 14.993817 0 0 1 1.453982 21.163742 67.231179 67.231179 0 0 1-50.679381 23.079718z m0 0" fill="#4E5660" p-id="25075"></path></svg>